<mxfile host="Electron" modified="2023-11-28T21:12:42.354Z" agent="Mozilla/5.0 (Windows NT 10.0; Win64; x64) AppleWebKit/537.36 (KHTML, like Gecko) draw.io/22.0.3 Chrome/114.0.5735.289 Electron/25.8.4 Safari/537.36" etag="MDkHKRqtekL7OnkZ1Ymc" compressed="false" version="22.1.2" type="device">
  <diagram id="0" name="Page-1">
    <mxGraphModel dx="780" dy="504" grid="1" gridSize="10" guides="1" tooltips="1" connect="1" arrows="1" fold="1" page="1" pageScale="1" pageWidth="827" pageHeight="1169" math="0" shadow="0">
      <root>
        <mxCell id="0" />
        <mxCell id="1" parent="0" />
        <mxCell id="eChx18Zrx1sLOPhIvOU9-1" value="" style="rounded=1;whiteSpace=wrap;html=1;shadow=1;strokeWidth=1;glass=1;perimeterSpacing=0;sketch=0;strokeColor=#B3B3B3;" parent="1" vertex="1">
          <mxGeometry x="40" y="80" width="480" height="320" as="geometry" />
        </mxCell>
        <mxCell id="4Hp-IZOo0zLQBIbfUoJF-2" value="微信赞赏码" style="ellipse;shape=cloud;whiteSpace=wrap;html=1;glass=1;strokeWidth=1;dashed=1;dashPattern=1 2;" parent="1" vertex="1">
          <mxGeometry x="370" y="300" width="120" height="80" as="geometry" />
        </mxCell>
      </root>
    </mxGraphModel>
  </diagram>
</mxfile>
